<?xml version="1.0" encoding="UTF-8"?>
<svg width="68px" height="62px" viewBox="0 0 68 62" version="1.1" xmlns="http://www.w3.org/2000/svg" xmlns:xlink="http://www.w3.org/1999/xlink">
    <!-- Generator: Sketch 53.2 (72643) - https://sketchapp.com -->
    <title>cost-icon</title>
    <desc>Created with Sketch.</desc>
    <g id="Page-1" stroke="none" stroke-width="1" fill="none" fill-rule="evenodd">
        <g id="manor-landing-v2" transform="translate(-562.000000, -3382.000000)" stroke="#B19D81" stroke-width="2.025">
            <g id="cost-icon" transform="translate(562.700000, 3382.000000)">
                <path d="M2.8939968,20.8125 C2.1293782,20.8125 1.88374409,20.8599341 1.6323838,20.9943631 C1.44094029,21.0967482 1.2967482,21.2409403 1.19436309,21.4323838 C1.05993413,21.6837441 1.0125,21.9293782 1.0125,22.6939968 L1.0125,58.3060032 C1.0125,59.0706218 1.05993413,59.3162559 1.19436309,59.5676162 C1.2967482,59.7590597 1.44094029,59.9032518 1.6323838,60.0056369 C1.88374409,60.1400659 2.1293782,60.1875 2.8939968,60.1875 L63.7060032,60.1875 C64.4706218,60.1875 64.7162559,60.1400659 64.9676162,60.0056369 C65.1590597,59.9032518 65.3032518,59.7590597 65.4056369,59.5676162 C65.5400659,59.3162559 65.5875,59.0706218 65.5875,58.3060032 L65.5875,22.6939968 C65.5875,21.9293782 65.5400659,21.6837441 65.4056369,21.4323838 C65.3032518,21.2409403 65.1590597,21.0967482 64.9676162,20.9943631 C64.7162559,20.8599341 64.4706218,20.8125 63.7060032,20.8125 L2.8939968,20.8125 Z" id="Rectangle-Copy-12"></path>
                <path d="M2.20799115,60.1598697 L55.6875,21.0349968 L55.6875,1.95175985 C55.6875,1.84077104 55.6672608,1.73060617 55.6276678,1.62639215 C55.442479,1.13895136 54.8832495,0.888056984 54.3797922,1.07430718 L2.089702,20.4186274 C1.58602579,20.6049586 1.44039407,20.6827797 1.30602222,20.8008605 C1.20967128,20.8855299 1.14442864,20.9784217 1.09841955,21.095866 C1.03472564,21.2584531 1.0125,21.4167945 1.0125,21.9441452 L1.0125,59.2482402 C1.0125,59.359229 1.03273917,59.4693938 1.07233222,59.5736079 C1.2438525,60.0250715 1.73623657,60.2736182 2.20799115,60.1598697 Z" id="Shape"></path>
                <path d="M55.8,9 L22.5,20.7" id="Path-11" stroke-linecap="round"></path>
            </g>
        </g>
    </g>
</svg>