<?xml version="1.0" encoding="UTF-8"?>
<svg width="54px" height="37px" viewBox="0 0 54 37" version="1.1" xmlns="http://www.w3.org/2000/svg" xmlns:xlink="http://www.w3.org/1999/xlink">
    <!-- Generator: Sketch 53.2 (72643) - https://sketchapp.com -->
    <title>dashboard-icon</title>
    <desc>Created with Sketch.</desc>
    <g id="Page-1" stroke="none" stroke-width="1" fill="none" fill-rule="evenodd">
        <g id="manor-landing-v2" transform="translate(-774.000000, -5114.000000)" stroke="#B19D81" stroke-width="1.41647616">
            <g id="dashboard-icon" transform="translate(774.000000, 5114.000000)">
                <path d="M1.81584113,0.70823808 C1.3470924,0.70823808 1.2043452,0.735803836 1.0586411,0.81372724 C0.951231522,0.871170513 0.871170513,0.951231522 0.81372724,1.0586411 C0.735803836,1.2043452 0.70823808,1.3470924 0.70823808,1.81584113 L0.70823808,7.18415887 C0.70823808,7.6529076 0.735803836,7.7956548 0.81372724,7.9413589 C0.871170513,8.04876848 0.951231522,8.12882949 1.0586411,8.18627276 C1.2043452,8.26419616 1.3470924,8.29176192 1.81584113,8.29176192 L12.5841589,8.29176192 C13.0529076,8.29176192 13.1956548,8.26419616 13.3413589,8.18627276 C13.4487685,8.12882949 13.5288295,8.04876848 13.5862728,7.9413589 C13.6641962,7.7956548 13.6917619,7.6529076 13.6917619,7.18415887 L13.6917619,1.81584113 C13.6917619,1.3470924 13.6641962,1.2043452 13.5862728,1.0586411 C13.5288295,0.951231522 13.4487685,0.871170513 13.3413589,0.81372724 C13.1956548,0.735803836 13.0529076,0.70823808 12.5841589,0.70823808 L1.81584113,0.70823808 Z" id="Rectangle"></path>
                <path d="M1.81584113,14.2082381 C1.3470924,14.2082381 1.2043452,14.2358038 1.0586411,14.3137272 C0.951231522,14.3711705 0.871170513,14.4512315 0.81372724,14.5586411 C0.735803836,14.7043452 0.70823808,14.8470924 0.70823808,15.3158411 L0.70823808,20.6841589 C0.70823808,21.1529076 0.735803836,21.2956548 0.81372724,21.4413589 C0.871170513,21.5487685 0.951231522,21.6288295 1.0586411,21.6862728 C1.2043452,21.7641962 1.3470924,21.7917619 1.81584113,21.7917619 L12.5841589,21.7917619 C13.0529076,21.7917619 13.1956548,21.7641962 13.3413589,21.6862728 C13.4487685,21.6288295 13.5288295,21.5487685 13.5862728,21.4413589 C13.6641962,21.2956548 13.6917619,21.1529076 13.6917619,20.6841589 L13.6917619,15.3158411 C13.6917619,14.8470924 13.6641962,14.7043452 13.5862728,14.5586411 C13.5288295,14.4512315 13.4487685,14.3711705 13.3413589,14.3137272 C13.1956548,14.2358038 13.0529076,14.2082381 12.5841589,14.2082381 L1.81584113,14.2082381 Z" id="Rectangle-Copy-6"></path>
                <path d="M1.81584113,28.6082381 C1.3470924,28.6082381 1.2043452,28.6358038 1.0586411,28.7137272 C0.951231522,28.7711705 0.871170513,28.8512315 0.81372724,28.9586411 C0.735803836,29.1043452 0.70823808,29.2470924 0.70823808,29.7158411 L0.70823808,35.0841589 C0.70823808,35.5529076 0.735803836,35.6956548 0.81372724,35.8413589 C0.871170513,35.9487685 0.951231522,36.0288295 1.0586411,36.0862728 C1.2043452,36.1641962 1.3470924,36.1917619 1.81584113,36.1917619 L12.5841589,36.1917619 C13.0529076,36.1917619 13.1956548,36.1641962 13.3413589,36.0862728 C13.4487685,36.0288295 13.5288295,35.9487685 13.5862728,35.8413589 C13.6641962,35.6956548 13.6917619,35.5529076 13.6917619,35.0841589 L13.6917619,29.7158411 C13.6917619,29.2470924 13.6641962,29.1043452 13.5862728,28.9586411 C13.5288295,28.8512315 13.4487685,28.7711705 13.3413589,28.7137272 C13.1956548,28.6358038 13.0529076,28.6082381 12.5841589,28.6082381 L1.81584113,28.6082381 Z" id="Rectangle-Copy-9"></path>
                <path d="M21.6158411,0.70823808 C21.1470924,0.70823808 21.0043452,0.735803836 20.8586411,0.81372724 C20.7512315,0.871170513 20.6711705,0.951231522 20.6137272,1.0586411 C20.5358038,1.2043452 20.5082381,1.3470924 20.5082381,1.81584113 L20.5082381,7.18415887 C20.5082381,7.6529076 20.5358038,7.7956548 20.6137272,7.9413589 C20.6711705,8.04876848 20.7512315,8.12882949 20.8586411,8.18627276 C21.0043452,8.26419616 21.1470924,8.29176192 21.6158411,8.29176192 L32.3841589,8.29176192 C32.8529076,8.29176192 32.9956548,8.26419616 33.1413589,8.18627276 C33.2487685,8.12882949 33.3288295,8.04876848 33.3862728,7.9413589 C33.4641962,7.7956548 33.4917619,7.6529076 33.4917619,7.18415887 L33.4917619,1.81584113 C33.4917619,1.3470924 33.4641962,1.2043452 33.3862728,1.0586411 C33.3288295,0.951231522 33.2487685,0.871170513 33.1413589,0.81372724 C32.9956548,0.735803836 32.8529076,0.70823808 32.3841589,0.70823808 L21.6158411,0.70823808 Z" id="Rectangle-Copy-4"></path>
                <path d="M21.6158411,14.2082381 C21.1470924,14.2082381 21.0043452,14.2358038 20.8586411,14.3137272 C20.7512315,14.3711705 20.6711705,14.4512315 20.6137272,14.5586411 C20.5358038,14.7043452 20.5082381,14.8470924 20.5082381,15.3158411 L20.5082381,20.6841589 C20.5082381,21.1529076 20.5358038,21.2956548 20.6137272,21.4413589 C20.6711705,21.5487685 20.7512315,21.6288295 20.8586411,21.6862728 C21.0043452,21.7641962 21.1470924,21.7917619 21.6158411,21.7917619 L32.3841589,21.7917619 C32.8529076,21.7917619 32.9956548,21.7641962 33.1413589,21.6862728 C33.2487685,21.6288295 33.3288295,21.5487685 33.3862728,21.4413589 C33.4641962,21.2956548 33.4917619,21.1529076 33.4917619,20.6841589 L33.4917619,15.3158411 C33.4917619,14.8470924 33.4641962,14.7043452 33.3862728,14.5586411 C33.3288295,14.4512315 33.2487685,14.3711705 33.1413589,14.3137272 C32.9956548,14.2358038 32.8529076,14.2082381 32.3841589,14.2082381 L21.6158411,14.2082381 Z" id="Rectangle-Copy-7"></path>
                <path d="M21.6158411,28.6082381 C21.1470924,28.6082381 21.0043452,28.6358038 20.8586411,28.7137272 C20.7512315,28.7711705 20.6711705,28.8512315 20.6137272,28.9586411 C20.5358038,29.1043452 20.5082381,29.2470924 20.5082381,29.7158411 L20.5082381,35.0841589 C20.5082381,35.5529076 20.5358038,35.6956548 20.6137272,35.8413589 C20.6711705,35.9487685 20.7512315,36.0288295 20.8586411,36.0862728 C21.0043452,36.1641962 21.1470924,36.1917619 21.6158411,36.1917619 L32.3841589,36.1917619 C32.8529076,36.1917619 32.9956548,36.1641962 33.1413589,36.0862728 C33.2487685,36.0288295 33.3288295,35.9487685 33.3862728,35.8413589 C33.4641962,35.6956548 33.4917619,35.5529076 33.4917619,35.0841589 L33.4917619,29.7158411 C33.4917619,29.2470924 33.4641962,29.1043452 33.3862728,28.9586411 C33.3288295,28.8512315 33.2487685,28.7711705 33.1413589,28.7137272 C32.9956548,28.6358038 32.8529076,28.6082381 32.3841589,28.6082381 L21.6158411,28.6082381 Z" id="Rectangle-Copy-10"></path>
                <path d="M41.4158411,0.70823808 C40.9470924,0.70823808 40.8043452,0.735803836 40.6586411,0.81372724 C40.5512315,0.871170513 40.4711705,0.951231522 40.4137272,1.0586411 C40.3358038,1.2043452 40.3082381,1.3470924 40.3082381,1.81584113 L40.3082381,7.18415887 C40.3082381,7.6529076 40.3358038,7.7956548 40.4137272,7.9413589 C40.4711705,8.04876848 40.5512315,8.12882949 40.6586411,8.18627276 C40.8043452,8.26419616 40.9470924,8.29176192 41.4158411,8.29176192 L52.1841589,8.29176192 C52.6529076,8.29176192 52.7956548,8.26419616 52.9413589,8.18627276 C53.0487685,8.12882949 53.1288295,8.04876848 53.1862728,7.9413589 C53.2641962,7.7956548 53.2917619,7.6529076 53.2917619,7.18415887 L53.2917619,1.81584113 C53.2917619,1.3470924 53.2641962,1.2043452 53.1862728,1.0586411 C53.1288295,0.951231522 53.0487685,0.871170513 52.9413589,0.81372724 C52.7956548,0.735803836 52.6529076,0.70823808 52.1841589,0.70823808 L41.4158411,0.70823808 Z" id="Rectangle-Copy-5"></path>
                <path d="M41.4158411,14.2082381 C40.9470924,14.2082381 40.8043452,14.2358038 40.6586411,14.3137272 C40.5512315,14.3711705 40.4711705,14.4512315 40.4137272,14.5586411 C40.3358038,14.7043452 40.3082381,14.8470924 40.3082381,15.3158411 L40.3082381,20.6841589 C40.3082381,21.1529076 40.3358038,21.2956548 40.4137272,21.4413589 C40.4711705,21.5487685 40.5512315,21.6288295 40.6586411,21.6862728 C40.8043452,21.7641962 40.9470924,21.7917619 41.4158411,21.7917619 L52.1841589,21.7917619 C52.6529076,21.7917619 52.7956548,21.7641962 52.9413589,21.6862728 C53.0487685,21.6288295 53.1288295,21.5487685 53.1862728,21.4413589 C53.2641962,21.2956548 53.2917619,21.1529076 53.2917619,20.6841589 L53.2917619,15.3158411 C53.2917619,14.8470924 53.2641962,14.7043452 53.1862728,14.5586411 C53.1288295,14.4512315 53.0487685,14.3711705 52.9413589,14.3137272 C52.7956548,14.2358038 52.6529076,14.2082381 52.1841589,14.2082381 L41.4158411,14.2082381 Z" id="Rectangle-Copy-8"></path>
                <path d="M41.4158411,28.6082381 C40.9470924,28.6082381 40.8043452,28.6358038 40.6586411,28.7137272 C40.5512315,28.7711705 40.4711705,28.8512315 40.4137272,28.9586411 C40.3358038,29.1043452 40.3082381,29.2470924 40.3082381,29.7158411 L40.3082381,35.0841589 C40.3082381,35.5529076 40.3358038,35.6956548 40.4137272,35.8413589 C40.4711705,35.9487685 40.5512315,36.0288295 40.6586411,36.0862728 C40.8043452,36.1641962 40.9470924,36.1917619 41.4158411,36.1917619 L52.1841589,36.1917619 C52.6529076,36.1917619 52.7956548,36.1641962 52.9413589,36.0862728 C53.0487685,36.0288295 53.1288295,35.9487685 53.1862728,35.8413589 C53.2641962,35.6956548 53.2917619,35.5529076 53.2917619,35.0841589 L53.2917619,29.7158411 C53.2917619,29.2470924 53.2641962,29.1043452 53.1862728,28.9586411 C53.1288295,28.8512315 53.0487685,28.7711705 52.9413589,28.7137272 C52.7956548,28.6358038 52.6529076,28.6082381 52.1841589,28.6082381 L41.4158411,28.6082381 Z" id="Rectangle-Copy-11"></path>
            </g>
        </g>
    </g>
</svg>