<?xml version="1.0" encoding="UTF-8"?>
<svg width="49px" height="61px" viewBox="0 0 49 61" version="1.1" xmlns="http://www.w3.org/2000/svg" xmlns:xlink="http://www.w3.org/1999/xlink">
    <!-- Generator: Sketch 53.2 (72643) - https://sketchapp.com -->
    <title>network-icon</title>
    <desc>Created with Sketch.</desc>
    <g id="Page-1" stroke="none" stroke-width="1" fill="none" fill-rule="evenodd">
        <g id="manor-landing-v2" transform="translate(-999.000000, -3389.000000)" stroke="#B19D81" stroke-width="2.025">
            <g id="network-icon" transform="translate(999.200000, 3389.200000)">
                <path d="M22.9170428,1.0125 C22.3670358,1.0125 22.2157967,1.04170562 22.0622358,1.12383085 C21.956848,1.18019289 21.8801929,1.25684799 21.8238309,1.36223583 C21.7417056,1.51579666 21.7125,1.66703579 21.7125,2.21704281 L21.7125,58.0829572 C21.7125,58.6329642 21.7417056,58.7842033 21.8238309,58.9377642 C21.8801929,59.043152 21.956848,59.1198071 22.0622358,59.1761691 C22.2157967,59.2582944 22.3670358,59.2875 22.9170428,59.2875 L26.5829572,59.2875 C27.1329642,59.2875 27.2842033,59.2582944 27.4377642,59.1761691 C27.543152,59.1198071 27.6198071,59.043152 27.6761691,58.9377642 C27.7582944,58.7842033 27.7875,58.6329642 27.7875,58.0829572 L27.7875,2.21704281 C27.7875,1.66703579 27.7582944,1.51579666 27.6761691,1.36223583 C27.6198071,1.25684799 27.543152,1.18019289 27.4377642,1.12383085 C27.2842033,1.04170562 27.1329642,1.0125 26.5829572,1.0125 L22.9170428,1.0125 Z" id="Rectangle-Copy-4" transform="translate(24.750000, 30.150000) rotate(180.000000) translate(-24.750000, -30.150000) "></path>
                <path d="M9.54,-3.4875 C9.30389827,-3.4875 9.1125,-3.29610173 9.1125,-3.06 L9.1125,42.66 C9.1125,42.8961017 9.30389827,43.0875 9.54,43.0875 L39.06,43.0875 C39.2961017,43.0875 39.4875,42.8961017 39.4875,42.66 L39.4875,-3.06 C39.4875,-3.29610173 39.2961017,-3.4875 39.06,-3.4875 L9.54,-3.4875 Z" id="Rectangle" fill="#1F1F1F" transform="translate(24.300000, 19.800000) rotate(90.000000) translate(-24.300000, -19.800000) "></path>
                <path d="M9.9,14.85 L23.2148344,14.85" id="Path-24" stroke-linecap="round"></path>
                <path d="M9.9,22.95 L35.1,22.95" id="Path-24-Copy-2" stroke-linecap="round"></path>
            </g>
        </g>
    </g>
</svg>